<svg fill="none" xmlns="http://www.w3.org/2000/svg" viewBox="69.63 118.35 460.57 106.15">   <g filter="url(#filter0_d_5_61)">     <path d="M202.84 156.56C202.44 157.2 202.013 157.68 201.56 158C201.133 158.32 200.573 158.48 199.88 158.48C199.267 158.48 198.6 158.293 197.88 157.92C197.187 157.52 196.387 157.08 195.48 156.6C194.6 156.12 193.587 155.693 192.44 155.32C191.293 154.92 189.987 154.72 188.52 154.72C185.987 154.72 184.093 155.267 182.84 156.36C181.613 157.427 181 158.88 181 160.72C181 161.893 181.373 162.867 182.12 163.64C182.867 164.413 183.84 165.08 185.04 165.64C186.267 166.2 187.653 166.72 189.2 167.2C190.773 167.653 192.373 168.173 194 168.76C195.627 169.32 197.213 169.987 198.76 170.76C200.333 171.533 201.72 172.52 202.92 173.72C204.147 174.92 205.133 176.387 205.88 178.12C206.627 179.827 207 181.893 207 184.32C207 187.013 206.533 189.533 205.6 191.88C204.667 194.227 203.307 196.28 201.52 198.04C199.76 199.773 197.573 201.147 194.96 202.16C192.373 203.147 189.427 203.64 186.12 203.64C184.307 203.64 182.453 203.453 180.56 203.08C178.693 202.707 176.88 202.187 175.12 201.52C173.36 200.827 171.707 200.013 170.16 199.08C168.613 198.147 167.267 197.107 166.12 195.96L170.12 189.64C170.44 189.187 170.853 188.813 171.36 188.52C171.893 188.2 172.467 188.04 173.08 188.04C173.88 188.04 174.68 188.293 175.48 188.8C176.307 189.307 177.227 189.867 178.24 190.48C179.28 191.093 180.467 191.653 181.8 192.16C183.133 192.667 184.707 192.92 186.52 192.92C188.973 192.92 190.88 192.387 192.24 191.32C193.6 190.227 194.28 188.507 194.28 186.16C194.28 184.8 193.907 183.693 193.16 182.84C192.413 181.987 191.427 181.28 190.2 180.72C189 180.16 187.627 179.667 186.08 179.24C184.533 178.813 182.947 178.347 181.32 177.84C179.693 177.307 178.107 176.667 176.56 175.92C175.013 175.147 173.627 174.147 172.4 172.92C171.2 171.667 170.227 170.12 169.48 168.28C168.733 166.413 168.36 164.12 168.36 161.4C168.36 159.213 168.8 157.08 169.68 155C170.56 152.92 171.853 151.067 173.56 149.44C175.267 147.813 177.36 146.52 179.84 145.56C182.32 144.573 185.16 144.08 188.36 144.08C190.147 144.08 191.88 144.227 193.56 144.52C195.267 144.787 196.88 145.2 198.4 145.76C199.92 146.293 201.333 146.947 202.64 147.72C203.973 148.467 205.16 149.32 206.2 150.28L202.84 156.56ZM212.794 203V161.52H220.474C222.02 161.52 223.034 162.213 223.514 163.6L224.194 165.84C224.887 165.12 225.607 164.467 226.354 163.88C227.1 163.267 227.9 162.747 228.754 162.32C229.634 161.867 230.567 161.52 231.554 161.28C232.567 161.013 233.674 160.88 234.874 160.88C237.38 160.88 239.447 161.533 241.074 162.84C242.727 164.12 243.98 165.84 244.834 168C245.527 166.72 246.367 165.627 247.354 164.72C248.367 163.813 249.447 163.08 250.594 162.52C251.767 161.96 252.994 161.547 254.274 161.28C255.58 161.013 256.874 160.88 258.154 160.88C260.527 160.88 262.634 161.24 264.474 161.96C266.314 162.653 267.847 163.68 269.074 165.04C270.327 166.373 271.274 168.027 271.914 170C272.554 171.947 272.874 174.16 272.874 176.64V203H260.474V176.64C260.474 172.347 258.634 170.2 254.954 170.2C253.274 170.2 251.874 170.76 250.754 171.88C249.66 172.973 249.114 174.56 249.114 176.64V203H236.714V176.64C236.714 174.267 236.247 172.6 235.314 171.64C234.38 170.68 233.007 170.2 231.194 170.2C230.074 170.2 229.007 170.453 227.994 170.96C227.007 171.467 226.074 172.147 225.194 173V203H212.794ZM302.241 186.12C299.761 186.227 297.721 186.44 296.121 186.76C294.521 187.08 293.254 187.48 292.321 187.96C291.387 188.44 290.734 188.987 290.361 189.6C290.014 190.213 289.841 190.88 289.841 191.6C289.841 193.013 290.227 194.013 291.001 194.6C291.774 195.16 292.907 195.44 294.401 195.44C296.001 195.44 297.401 195.16 298.601 194.6C299.801 194.04 301.014 193.133 302.241 191.88V186.12ZM279.921 167.28C282.427 165.067 285.201 163.427 288.241 162.36C291.307 161.267 294.587 160.72 298.081 160.72C300.587 160.72 302.841 161.133 304.841 161.96C306.867 162.76 308.574 163.893 309.961 165.36C311.374 166.8 312.454 168.52 313.201 170.52C313.947 172.52 314.321 174.707 314.321 177.08V203H308.641C307.467 203 306.574 202.84 305.961 202.52C305.374 202.2 304.881 201.533 304.481 200.52L303.601 198.24C302.561 199.12 301.561 199.893 300.601 200.56C299.641 201.227 298.641 201.8 297.601 202.28C296.587 202.733 295.494 203.067 294.321 203.28C293.174 203.52 291.894 203.64 290.481 203.64C288.587 203.64 286.867 203.4 285.321 202.92C283.774 202.413 282.454 201.68 281.361 200.72C280.294 199.76 279.467 198.573 278.881 197.16C278.294 195.72 278.001 194.067 278.001 192.2C278.001 190.707 278.374 189.2 279.121 187.68C279.867 186.133 281.161 184.733 283.001 183.48C284.841 182.2 287.321 181.133 290.441 180.28C293.561 179.427 297.494 178.947 302.241 178.84V177.08C302.241 174.653 301.734 172.907 300.721 171.84C299.734 170.747 298.321 170.2 296.481 170.2C295.014 170.2 293.814 170.36 292.881 170.68C291.947 171 291.107 171.36 290.361 171.76C289.641 172.16 288.934 172.52 288.241 172.84C287.547 173.16 286.721 173.32 285.761 173.32C284.907 173.32 284.187 173.107 283.601 172.68C283.014 172.253 282.534 171.747 282.161 171.16L279.921 167.28ZM333.847 167.92C335.127 165.68 336.594 163.92 338.247 162.64C339.927 161.36 341.847 160.72 344.007 160.72C345.874 160.72 347.394 161.16 348.567 162.04L347.767 171.16C347.634 171.747 347.407 172.147 347.087 172.36C346.794 172.573 346.38 172.68 345.847 172.68C345.634 172.68 345.354 172.667 345.007 172.64C344.66 172.613 344.3 172.587 343.927 172.56C343.554 172.507 343.167 172.467 342.767 172.44C342.394 172.387 342.047 172.36 341.727 172.36C339.914 172.36 338.46 172.84 337.367 173.8C336.3 174.76 335.394 176.093 334.647 177.8V203H322.247V161.52H329.607C330.22 161.52 330.727 161.573 331.127 161.68C331.554 161.787 331.9 161.96 332.167 162.2C332.46 162.413 332.674 162.707 332.807 163.08C332.967 163.453 333.1 163.907 333.207 164.44L333.847 167.92ZM367.634 203.64C365.66 203.64 363.914 203.36 362.394 202.8C360.9 202.213 359.634 201.4 358.594 200.36C357.58 199.293 356.807 198.013 356.274 196.52C355.74 195.027 355.474 193.36 355.474 191.52V170.08H351.954C351.314 170.08 350.767 169.88 350.314 169.48C349.86 169.053 349.634 168.44 349.634 167.64V162.8L356.234 161.52L358.674 151.4C358.994 150.12 359.9 149.48 361.394 149.48H367.874V161.6H378.154V170.08H367.874V190.68C367.874 191.64 368.1 192.44 368.554 193.08C369.034 193.693 369.714 194 370.594 194C371.047 194 371.42 193.96 371.714 193.88C372.034 193.773 372.3 193.667 372.514 193.56C372.754 193.427 372.967 193.32 373.154 193.24C373.367 193.133 373.607 193.08 373.874 193.08C374.247 193.08 374.54 193.173 374.754 193.36C374.994 193.52 375.234 193.787 375.474 194.16L379.234 200.04C377.634 201.24 375.834 202.147 373.834 202.76C371.834 203.347 369.767 203.64 367.634 203.64Z" fill="#406187"/>     <path d="M412.937 172.8H433.657V197.4C430.67 199.587 427.484 201.173 424.097 202.16C420.737 203.147 417.217 203.64 413.537 203.64C408.737 203.64 404.364 202.893 400.417 201.4C396.497 199.88 393.137 197.8 390.337 195.16C387.537 192.493 385.377 189.347 383.857 185.72C382.337 182.067 381.577 178.107 381.577 173.84C381.577 169.493 382.297 165.507 383.737 161.88C385.177 158.227 387.23 155.08 389.897 152.44C392.59 149.8 395.83 147.747 399.617 146.28C403.43 144.813 407.684 144.08 412.377 144.08C414.804 144.08 417.084 144.28 419.217 144.68C421.35 145.08 423.31 145.627 425.097 146.32C426.91 147.013 428.564 147.84 430.057 148.8C431.55 149.76 432.884 150.8 434.057 151.92L430.137 157.88C429.524 158.813 428.724 159.387 427.737 159.6C426.777 159.813 425.737 159.573 424.617 158.88C423.55 158.24 422.537 157.693 421.577 157.24C420.644 156.76 419.684 156.373 418.697 156.08C417.71 155.787 416.67 155.573 415.577 155.44C414.484 155.307 413.257 155.24 411.897 155.24C409.364 155.24 407.084 155.693 405.057 156.6C403.03 157.48 401.297 158.733 399.857 160.36C398.444 161.987 397.35 163.947 396.577 166.24C395.804 168.507 395.417 171.04 395.417 173.84C395.417 176.933 395.844 179.68 396.697 182.08C397.55 184.48 398.75 186.507 400.297 188.16C401.87 189.813 403.737 191.08 405.897 191.96C408.084 192.813 410.497 193.24 413.137 193.24C414.764 193.24 416.23 193.08 417.537 192.76C418.87 192.44 420.164 192.013 421.417 191.48V182.64H415.657C414.804 182.64 414.137 182.413 413.657 181.96C413.177 181.507 412.937 180.933 412.937 180.24V172.8ZM452.363 167.92C453.643 165.68 455.109 163.92 456.762 162.64C458.443 161.36 460.363 160.72 462.523 160.72C464.389 160.72 465.909 161.16 467.083 162.04L466.283 171.16C466.149 171.747 465.923 172.147 465.603 172.36C465.309 172.573 464.896 172.68 464.363 172.68C464.149 172.68 463.869 172.667 463.523 172.64C463.176 172.613 462.816 172.587 462.443 172.56C462.069 172.507 461.683 172.467 461.283 172.44C460.909 172.387 460.563 172.36 460.243 172.36C458.429 172.36 456.976 172.84 455.883 173.8C454.816 174.76 453.909 176.093 453.163 177.8V203H440.763V161.52H448.123C448.736 161.52 449.243 161.573 449.643 161.68C450.069 161.787 450.416 161.96 450.683 162.2C450.976 162.413 451.189 162.707 451.323 163.08C451.483 163.453 451.616 163.907 451.723 164.44L452.363 167.92ZM483.989 161.52V203H471.589V161.52H483.989ZM485.269 150.16C485.269 151.147 485.069 152.08 484.669 152.96C484.269 153.813 483.723 154.573 483.029 155.24C482.336 155.88 481.523 156.4 480.589 156.8C479.683 157.173 478.709 157.36 477.669 157.36C476.656 157.36 475.709 157.173 474.829 156.8C473.949 156.4 473.163 155.88 472.469 155.24C471.803 154.573 471.269 153.813 470.869 152.96C470.496 152.08 470.309 151.147 470.309 150.16C470.309 149.147 470.496 148.2 470.869 147.32C471.269 146.44 471.803 145.667 472.469 145C473.163 144.333 473.949 143.813 474.829 143.44C475.709 143.067 476.656 142.88 477.669 142.88C478.709 142.88 479.683 143.067 480.589 143.44C481.523 143.813 482.336 144.333 483.029 145C483.723 145.667 484.269 146.44 484.669 147.32C485.069 148.2 485.269 149.147 485.269 150.16ZM517.798 172.64C516.864 171.6 515.851 170.88 514.758 170.48C513.664 170.053 512.518 169.84 511.318 169.84C510.171 169.84 509.118 170.067 508.158 170.52C507.198 170.973 506.358 171.707 505.638 172.72C504.944 173.707 504.398 175 503.998 176.6C503.598 178.2 503.398 180.133 503.398 182.4C503.398 184.587 503.558 186.427 503.878 187.92C504.198 189.413 504.638 190.627 505.198 191.56C505.784 192.467 506.478 193.12 507.278 193.52C508.078 193.92 508.971 194.12 509.958 194.12C510.864 194.12 511.678 194.04 512.398 193.88C513.144 193.693 513.824 193.44 514.438 193.12C515.051 192.8 515.624 192.4 516.158 191.92C516.718 191.413 517.264 190.84 517.798 190.2V172.64ZM530.198 143.12V203H522.518C520.971 203 519.958 202.307 519.478 200.92L518.518 197.76C517.691 198.64 516.824 199.44 515.918 200.16C515.011 200.88 514.024 201.507 512.958 202.04C511.918 202.547 510.784 202.933 509.557 203.2C508.358 203.493 507.051 203.64 505.638 203.64C503.478 203.64 501.478 203.16 499.638 202.2C497.798 201.24 496.211 199.853 494.878 198.04C493.544 196.227 492.491 194.013 491.718 191.4C490.971 188.76 490.598 185.76 490.598 182.4C490.598 179.307 491.024 176.44 491.878 173.8C492.731 171.133 493.931 168.84 495.478 166.92C497.051 164.973 498.931 163.453 501.118 162.36C503.304 161.267 505.718 160.72 508.358 160.72C510.518 160.72 512.331 161.027 513.798 161.64C515.264 162.253 516.598 163.08 517.798 164.12V143.12H530.198Z" fill="#F2DF0F"/>   </g>   <g filter="url(#filter1_d_5_61)">     <path d="M123.25 118.35H151.85V151.625L150.2 151.9H138.1L137.825 151.625L137.55 132.375H126.825L118.575 132.925L113.075 134.025L106.2 136.5L102.35 138.7L98.775 141.175L96.025 143.65L92.175 147.5L88.875 152.45L86.675 156.85L84.75 162.075L83.925 164.55H151.3L151.85 165.1V173.35L151.3 178.85L149.925 185.725L148.275 190.4L146.35 194.8L143.325 199.75L140.3 203.875L137.825 206.625L133.15 211.3L129.575 214.05L125.175 216.8L119.95 219.55L114.45 221.75L107.85 223.4L100.7 224.225L92.45 224.5H69.9L69.625 224.225V190.4H83.1L83.375 193.975V210.475H96.3L102.625 209.925L108.125 208.825L112.8 207.175L117.2 204.975L121.6 202.225L124.625 199.75L127.375 197.275L130.4 193.425L132.875 189.575L135.35 184.35L137 178.3L108.125 178.575H70.175L69.625 178.3V166.75L70.175 161.8L71.55 156.3L73.75 150.525L76.775 144.75L79.8 140.35L82.275 137.325L85.3 134.025L87.5 132.1L91.35 129.075L94.65 126.875L98.225 124.675L103.45 122.2L110.325 120L116.1 118.9L123.25 118.35Z" fill="#406187"/>   </g>   <path d="M122.975 142.825H126L126.275 143.65V154.925L124.9 155.2H109.775L102.9 154.925L103.175 153.825L105.65 151.075L108.675 148.6L112.525 146.125L116.65 144.2L121.05 143.1L122.975 142.825Z" fill="#F2DF0F"/>   <path d="M95.2 187.65H118.575L118.025 188.75L113.9 192.875L110.6 195.35L105.925 197.825L101.525 199.2L96.85 200.025H95.475L94.925 199.475V187.925L95.2 187.65Z" fill="#F2DF0F"/>   <defs>     <filter id="filter0_d_5_61" x="162.12" y="142.88" width="372.078" height="68.76" filterUnits="userSpaceOnUse" color-interpolation-filters="sRGB">       <feFlood flood-opacity="0" result="BackgroundImageFix"/>       <feColorMatrix in="SourceAlpha" type="matrix" values="0 0 0 0 0 0 0 0 0 0 0 0 0 0 0 0 0 0 127 0" result="hardAlpha"/>       <feOffset dy="4"/>       <feGaussianBlur stdDeviation="2"/>       <feComposite in2="hardAlpha" operator="out"/>       <feColorMatrix type="matrix" values="0 0 0 0 0 0 0 0 0 0 0 0 0 0 0 0 0 0 0.25 0"/>       <feBlend mode="normal" in2="BackgroundImageFix" result="effect1_dropShadow_5_61"/>       <feBlend mode="normal" in="SourceGraphic" in2="effect1_dropShadow_5_61" result="shape"/>     </filter>     <filter id="filter1_d_5_61" x="65.625" y="118.35" width="90.225" height="114.15" filterUnits="userSpaceOnUse" color-interpolation-filters="sRGB">       <feFlood flood-opacity="0" result="BackgroundImageFix"/>       <feColorMatrix in="SourceAlpha" type="matrix" values="0 0 0 0 0 0 0 0 0 0 0 0 0 0 0 0 0 0 127 0" result="hardAlpha"/>       <feOffset dy="4"/>       <feGaussianBlur stdDeviation="2"/>       <feComposite in2="hardAlpha" operator="out"/>       <feColorMatrix type="matrix" values="0 0 0 0 0 0 0 0 0 0 0 0 0 0 0 0 0 0 0.25 0"/>       <feBlend mode="normal" in2="BackgroundImageFix" result="effect1_dropShadow_5_61"/>       <feBlend mode="normal" in="SourceGraphic" in2="effect1_dropShadow_5_61" result="shape"/>     </filter>   </defs> </svg>
